<svg width="218" height="178" viewBox="0 0 218 178" fill="none" xmlns="http://www.w3.org/2000/svg">
<rect y="43" width="218" height="130" rx="8" fill="#D1D0EA"/>
<mask id="mask0_204_154" style="mask-type:alpha" maskUnits="userSpaceOnUse" x="0" y="43" width="218" height="130">
<rect y="43" width="218" height="130" rx="8" fill="#D1D0EA"/>
</mask>
<g mask="url(#mask0_204_154)">
<path fill-rule="evenodd" clip-rule="evenodd" d="M140.104 26.4616C183.374 29.4995 223.115 65.3332 225.626 112.492C227.734 152.08 181.199 163.729 148.383 181.941C119.337 198.061 86.4007 226.002 62.502 203.02C36.9905 178.488 49.3694 135.348 64.3906 101.172C80.6036 64.2842 103.06 23.8608 140.104 26.4616Z" fill="url(#paint0_linear_204_154)"/>
</g>
<path fill-rule="evenodd" clip-rule="evenodd" d="M0 165V170C0 174.418 3.58173 178 8.00001 178H210C214.418 178 218 174.418 218 170V165C218 169.418 214.418 173 210 173H8.00001C3.58173 173 0 169.418 0 165Z" fill="#C7C6E1"/>
<rect x="9" y="53" width="30" height="30" rx="2.5" fill="#2D2C64"/>
<rect x="13.375" y="54.875" width="21.25" height="21.25" rx="2.5" fill="#514F91"/>
<rect x="9" y="93" width="30" height="30" rx="2.5" fill="#2D2C64"/>
<rect x="13.375" y="94.875" width="21.25" height="21.25" rx="2.5" fill="#514F91"/>
<rect x="9" y="133" width="30" height="30" rx="2.5" fill="#2D2C64"/>
<rect x="13.375" y="134.875" width="21.25" height="21.25" rx="2.5" fill="#514F91"/>
<rect x="51" y="53" width="30" height="30" rx="2.5" fill="#2D2C64"/>
<rect x="55.375" y="54.875" width="21.25" height="21.25" rx="2.5" fill="#514F91"/>
<rect x="51" y="93" width="30" height="30" rx="2.5" fill="#2D2C64"/>
<rect x="55.375" y="94.875" width="21.25" height="21.25" rx="2.5" fill="#514F91"/>
<rect x="93" y="53" width="30" height="30" rx="2.5" fill="#2D2C64"/>
<rect x="97.375" y="54.875" width="21.25" height="21.25" rx="2.5" fill="#514F91"/>
<rect x="93" y="93" width="30" height="30" rx="2.5" fill="#2D2C64"/>
<rect x="97.375" y="94.875" width="21.25" height="21.25" rx="2.5" fill="#514F91"/>
<rect x="51" y="133" width="114" height="30" rx="2.5" fill="#2D2C64"/>
<rect x="55" y="135" width="106" height="21" rx="2.5" fill="#514F91"/>
<rect x="135" y="53" width="30" height="30" rx="2.5" fill="#2D2C64"/>
<rect x="139.375" y="54.875" width="21.25" height="21.25" rx="2.5" fill="#514F91"/>
<rect x="135" y="93" width="30" height="30" rx="2.5" fill="#2D2C64"/>
<rect x="139.375" y="94.875" width="21.25" height="21.25" rx="2.5" fill="#514F91"/>
<rect x="177" y="53" width="30" height="30" rx="2.5" fill="#2D2C64"/>
<rect x="181.375" y="54.875" width="21.25" height="21.25" rx="2.5" fill="#514F91"/>
<rect x="177" y="93" width="30" height="30" rx="2.5" fill="#2D2C64"/>
<rect x="181.375" y="94.875" width="21.25" height="21.25" rx="2.5" fill="#514F91"/>
<rect x="177" y="133" width="30" height="30" rx="2.5" fill="#2D2C64"/>
<rect x="181.375" y="134.875" width="21.25" height="21.25" rx="2.5" fill="#514F91"/>
<path d="M175.332 22.1763C175.417 21.755 175.959 21.6299 176.22 21.9714L185.888 34.628C186.109 34.9172 186.428 35.1162 186.785 35.188L202.399 38.3298C202.82 38.4146 202.945 38.9564 202.604 39.2173L189.947 48.886C189.658 49.1069 189.459 49.4254 189.387 49.7821L186.245 65.3963C186.16 65.8176 185.619 65.9427 185.358 65.6012L175.689 52.9446C175.468 52.6554 175.15 52.4564 174.793 52.3846L159.179 49.2428C158.757 49.158 158.632 48.6162 158.974 48.3553L171.631 38.6866C171.92 38.4657 172.119 38.1472 172.19 37.7905L175.332 22.1763Z" fill="#514F90" stroke="#DCDCEE"/>
<path d="M201.257 15.8453C201.341 15.424 201.883 15.2989 202.144 15.6404L205.85 20.4921C206.071 20.7812 206.39 20.9802 206.747 21.052L212.732 22.2564C213.153 22.3412 213.278 22.883 212.937 23.1439L208.085 26.8502C207.796 27.0711 207.597 27.3895 207.525 27.7463L206.321 33.7316C206.236 34.153 205.694 34.2781 205.433 33.9365L201.727 29.0849C201.506 28.7957 201.188 28.5967 200.831 28.5249L194.846 27.3206C194.424 27.2358 194.299 26.694 194.641 26.4331L199.492 22.7268C199.782 22.5059 199.981 22.1874 200.052 21.8307L201.257 15.8453Z" fill="#514F90" stroke="#DCDCEE"/>
<path d="M149.132 5.97375C149.217 5.55237 149.759 5.42729 150.019 5.76885L156.019 13.6224C156.24 13.9116 156.558 14.1106 156.915 14.1823L166.604 16.1319C167.025 16.2167 167.15 16.7585 166.809 17.0194L158.955 23.0189C158.666 23.2398 158.467 23.5583 158.395 23.915L156.446 33.6038C156.361 34.0251 155.819 34.1502 155.558 33.8087L149.559 25.9551C149.338 25.6659 149.019 25.4669 148.663 25.3952L138.974 23.4456C138.552 23.3608 138.427 22.819 138.769 22.5581L146.622 16.5586C146.912 16.3377 147.111 16.0192 147.182 15.6625L149.132 5.97375Z" fill="#514F90" stroke="#DCDCEE"/>
<defs>
<linearGradient id="paint0_linear_204_154" x1="152.411" y1="27.9911" x2="125.403" y2="217.996" gradientUnits="userSpaceOnUse">
<stop stop-color="#FFFEFE" stop-opacity="0.49"/>
<stop offset="0.277978" stop-color="#F4F4F4" stop-opacity="0.353791"/>
<stop offset="1" stop-color="#D9D9D9" stop-opacity="0"/>
</linearGradient>
</defs>
</svg>
