<svg width="259" height="165" viewBox="0 0 259 165" fill="none" xmlns="http://www.w3.org/2000/svg">
<rect x="46" width="148" height="102" fill="#2D2C64"/>
<rect x="111" y="38" width="148" height="102" fill="#48477E"/>
<rect y="63" width="148" height="102" fill="#7372A6"/>
<path d="M76 121L0 63L148 63L76 121Z" fill="#464587"/>
<path d="M74 117L0 63L148 63L74 117Z" fill="#5E5DA0"/>
<path fill-rule="evenodd" clip-rule="evenodd" d="M236.973 53H239.898C240.345 53.9416 241.305 54.5926 242.417 54.5926C243.528 54.5926 244.488 53.9416 244.936 53H248.389V54.8608C247.447 55.3081 246.796 56.2678 246.796 57.3796C246.796 58.4914 247.447 59.4512 248.389 59.8985V63.6201C247.447 64.0674 246.796 65.0271 246.796 66.1389C246.796 67.2507 247.447 68.2104 248.389 68.6577V71.583C247.447 72.0303 246.796 72.9901 246.796 74.1019C246.796 75.2136 247.447 76.1734 248.389 76.6207V80.3423C247.447 80.7896 246.796 81.7493 246.796 82.8611C246.796 83.9729 247.447 84.9326 248.389 85.3799V88.3052C247.447 88.7525 246.796 89.7123 246.796 90.8241C246.796 91.9359 247.447 92.8956 248.389 93.3429V96H245.732C245.284 95.0584 244.325 94.4074 243.213 94.4074C242.101 94.4074 241.141 95.0584 240.694 96H237.769C237.322 95.0584 236.362 94.4074 235.25 94.4074C234.138 94.4074 233.178 95.0584 232.731 96H229.01C228.562 95.0584 227.603 94.4074 226.491 94.4074C225.379 94.4074 224.419 95.0584 223.972 96H221.047C220.599 95.0584 219.64 94.4074 218.528 94.4074C217.416 94.4074 216.456 95.0584 216.009 96H212.287C211.84 95.0584 210.88 94.4074 209.769 94.4074C208.657 94.4074 207.697 95.0584 207.25 96H203V93.3429C203.942 92.8956 204.593 91.9359 204.593 90.8241C204.593 89.7123 203.942 88.7525 203 88.3052V84.5836C203.942 84.1363 204.593 83.1766 204.593 82.0648C204.593 80.953 203.942 79.9933 203 79.546V76.6207C203.942 76.1734 204.593 75.2136 204.593 74.1019C204.593 72.9901 203.942 72.0303 203 71.583V67.8614C203.942 67.4141 204.593 66.4544 204.593 65.3426C204.593 64.2308 203.942 63.2711 203 62.8238V59.8985C203.942 59.4512 204.593 58.4914 204.593 57.3796C204.593 56.2678 203.942 55.3081 203 54.8608V53H206.453C206.901 53.9416 207.86 54.5926 208.972 54.5926C210.084 54.5926 211.044 53.9416 211.491 53H215.213C215.66 53.9416 216.62 54.5926 217.731 54.5926C218.843 54.5926 219.803 53.9416 220.25 53H223.176C223.623 53.9416 224.583 54.5926 225.694 54.5926C226.806 54.5926 227.766 53.9416 228.213 53H231.935C232.382 53.9416 233.342 54.5926 234.454 54.5926C235.565 54.5926 236.525 53.9416 236.973 53Z" fill="#9493C9"/>
<path fill-rule="evenodd" clip-rule="evenodd" d="M235.973 51H238.898C239.345 51.9416 240.305 52.5926 241.417 52.5926C242.528 52.5926 243.488 51.9416 243.936 51H247.389V52.8608C246.447 53.3081 245.796 54.2678 245.796 55.3796C245.796 56.4914 246.447 57.4512 247.389 57.8985V61.6201C246.447 62.0674 245.796 63.0271 245.796 64.1389C245.796 65.2507 246.447 66.2104 247.389 66.6577V69.583C246.447 70.0303 245.796 70.9901 245.796 72.1019C245.796 73.2136 246.447 74.1734 247.389 74.6207V78.3423C246.447 78.7896 245.796 79.7493 245.796 80.8611C245.796 81.9729 246.447 82.9326 247.389 83.3799V86.3052C246.447 86.7525 245.796 87.7123 245.796 88.8241C245.796 89.9359 246.447 90.8956 247.389 91.3429V94H244.732C244.284 93.0584 243.325 92.4074 242.213 92.4074C241.101 92.4074 240.141 93.0584 239.694 94H236.769C236.322 93.0584 235.362 92.4074 234.25 92.4074C233.138 92.4074 232.178 93.0584 231.731 94H228.01C227.562 93.0584 226.603 92.4074 225.491 92.4074C224.379 92.4074 223.419 93.0584 222.972 94H220.047C219.599 93.0584 218.64 92.4074 217.528 92.4074C216.416 92.4074 215.456 93.0584 215.009 94H211.287C210.84 93.0584 209.88 92.4074 208.769 92.4074C207.657 92.4074 206.697 93.0584 206.25 94H202V91.3429C202.942 90.8956 203.593 89.9359 203.593 88.8241C203.593 87.7123 202.942 86.7525 202 86.3052V82.5836C202.942 82.1363 203.593 81.1766 203.593 80.0648C203.593 78.953 202.942 77.9933 202 77.546V74.6207C202.942 74.1734 203.593 73.2136 203.593 72.1019C203.593 70.9901 202.942 70.0303 202 69.583V65.8614C202.942 65.4141 203.593 64.4544 203.593 63.3426C203.593 62.2308 202.942 61.2711 202 60.8238V57.8985C202.942 57.4512 203.593 56.4914 203.593 55.3796C203.593 54.2678 202.942 53.3081 202 52.8608V51H205.453C205.901 51.9416 206.86 52.5926 207.972 52.5926C209.084 52.5926 210.044 51.9416 210.491 51H214.213C214.66 51.9416 215.62 52.5926 216.731 52.5926C217.843 52.5926 218.803 51.9416 219.25 51H222.176C222.623 51.9416 223.583 52.5926 224.694 52.5926C225.806 52.5926 226.766 51.9416 227.213 51H230.935C231.382 51.9416 232.342 52.5926 233.454 52.5926C234.565 52.5926 235.525 51.9416 235.973 51Z" fill="#E8E8F4"/>
</svg>
