<svg width="175" height="175" viewBox="0 0 175 175" fill="none" xmlns="http://www.w3.org/2000/svg">
<circle cx="86" cy="86" r="86" fill="#D5D4EB"/>
<path fill-rule="evenodd" clip-rule="evenodd" d="M159.124 40.7128C156.773 39.0354 154.499 37.3271 152.344 35.5727C144.558 29.2333 137.043 21.2291 129.578 13.2788C128.62 12.2588 127.663 11.2396 126.707 10.225C114.589 3.70154 100.727 0 86 0C69.9718 0 54.9676 4.38482 42.1217 12.0203C33.147 35.9287 37.4404 67.457 46.5886 93.4207C57.9852 125.766 89.0669 144.708 123.323 146.229C131.614 146.597 140.18 146.223 148.567 145.004C163.095 129.604 172 108.842 172 86C172 69.3821 167.287 53.865 159.124 40.7128Z" fill="url(#paint0_linear_202_89)"/>
<path fill-rule="evenodd" clip-rule="evenodd" d="M89 175C136.496 175 175 136.496 175 89C175 41.5035 136.496 3 89 3C41.5035 3 3 41.5035 3 89C3 136.496 41.5035 175 89 175ZM89 163C129.869 163 163 129.869 163 89C163 48.1309 129.869 15 89 15C48.1309 15 15 48.1309 15 89C15 129.869 48.1309 163 89 163Z" fill="#A1A1C5"/>
<path fill-rule="evenodd" clip-rule="evenodd" d="M86 172C133.496 172 172 133.496 172 86C172 38.5035 133.496 0 86 0C38.5035 0 0 38.5035 0 86C0 133.496 38.5035 172 86 172ZM86 160C126.869 160 160 126.869 160 86C160 45.1309 126.869 12 86 12C45.1309 12 12 45.1309 12 86C12 126.869 45.1309 160 86 160Z" fill="#2D2C64"/>
<rect x="82" y="37" width="13" height="76" rx="3" fill="#8888AD"/>
<rect x="80" y="35" width="13" height="76" rx="3" fill="#2D2C64"/>
<circle cx="38" cy="86" r="11" fill="#8888AD"/>
<circle cx="52.7911" cy="50.291" r="11" transform="rotate(45 52.7911 50.291)" fill="#8888AD"/>
<circle cx="139" cy="86" r="11" fill="#8888AD"/>
<circle cx="124.209" cy="50.291" r="11" transform="rotate(-45 124.209 50.291)" fill="#8888AD"/>
<circle cx="89" cy="121" r="19" fill="#8888AD"/>
<circle cx="86" cy="118" r="16" fill="#2D2C64" stroke="white" stroke-width="6"/>
<circle cx="36" cy="84" r="9" fill="#2D2C64" stroke="white" stroke-width="4"/>
<circle cx="50.7911" cy="48.291" r="9" transform="rotate(45 50.7911 48.291)" fill="#2D2C64" stroke="white" stroke-width="4"/>
<circle cx="137" cy="84" r="9" fill="#2D2C64" stroke="white" stroke-width="4"/>
<circle cx="122.209" cy="48.291" r="9" transform="rotate(-45 122.209 48.291)" fill="#2D2C64" stroke="white" stroke-width="4"/>
<defs>
<linearGradient id="paint0_linear_202_89" x1="153.029" y1="62.8497" x2="-1.92356" y2="234.394" gradientUnits="userSpaceOnUse">
<stop stop-color="#FFFEFE" stop-opacity="0.49"/>
<stop offset="0.277978" stop-color="#F4F4F4" stop-opacity="0.353791"/>
<stop offset="1" stop-color="#D9D9D9" stop-opacity="0"/>
</linearGradient>
</defs>
</svg>
