<svg width="211" height="129" viewBox="0 0 211 129" fill="none" xmlns="http://www.w3.org/2000/svg">
<rect x="4" width="190" height="115" rx="7" fill="#2D2C64"/>
<mask id="mask0_202_51" style="mask-type:alpha" maskUnits="userSpaceOnUse" x="11" y="7" width="176" height="101">
<rect x="11" y="7.99927" width="176" height="100" rx="4" fill="#C8C8E1"/>
</mask>
<g mask="url(#mask0_202_51)">
<rect x="11" y="7.99915" width="176" height="100" rx="4" fill="#C8C8E1"/>
<path fill-rule="evenodd" clip-rule="evenodd" d="M138.691 -17.4616C169.246 -15.1223 197.599 8.34157 199.784 38.7841C201.619 64.34 168.889 71.4462 145.896 82.9061C125.544 93.0497 102.551 110.785 85.4883 95.7504C67.2737 79.7014 75.629 51.9816 85.9272 30.0674C97.0425 6.41465 112.532 -19.4643 138.691 -17.4616Z" fill="url(#paint0_linear_202_51)"/>
</g>
<path fill-rule="evenodd" clip-rule="evenodd" d="M63 113H0C0 117.971 4.02944 122 9 122H189C193.971 122 198 117.971 198 113H135V115H63V113Z" fill="#707093"/>
<path opacity="0.5" d="M158 120L158 34C158 30.6863 160.686 28 164 28L194 28L194 120L158 120Z" fill="#555578"/>
<rect x="162" y="129" width="98" height="49" rx="6" transform="rotate(-90 162 129)" fill="#2D2C64"/>
<mask id="mask1_202_51" style="mask-type:alpha" maskUnits="userSpaceOnUse" x="165" y="34" width="43" height="91">
<path fill-rule="evenodd" clip-rule="evenodd" d="M178 34L168 34C166.343 34 165 35.3431 165 37L165 122C165 123.657 166.343 125 168 125H205C206.657 125 208 123.657 208 122L208 37C208 35.3431 206.657 34 205 34L195 34V35C195 36.1046 194.105 37 193 37H180C178.895 37 178 36.1046 178 35V34Z" fill="#C8C8E1"/>
</mask>
<g mask="url(#mask1_202_51)">
<path fill-rule="evenodd" clip-rule="evenodd" d="M178 34L168 34C166.343 34 165 35.3431 165 37L165 122C165 123.657 166.343 125 168 125H205C206.657 125 208 123.657 208 122L208 37C208 35.3431 206.657 34 205 34L195 34V35C195 36.1046 194.105 37 193 37H180C178.895 37 178 36.1046 178 35V34Z" fill="#C8C8E1"/>
<path fill-rule="evenodd" clip-rule="evenodd" d="M197.429 40.8351C216.896 35.8735 239.43 44.4934 247.178 62.9405C253.682 78.4265 234.847 89.7106 222.973 101.654C212.464 112.226 201.907 128.067 188.154 122.312C173.473 116.169 172.843 97.2001 174.638 81.4288C176.576 64.4062 180.763 45.0829 197.429 40.8351Z" fill="url(#paint1_linear_202_51)"/>
</g>
<defs>
<linearGradient id="paint0_linear_202_51" x1="147.387" y1="-16.367" x2="129.998" y2="105.962" gradientUnits="userSpaceOnUse">
<stop stop-color="#FFFEFE" stop-opacity="0.49"/>
<stop offset="0.277978" stop-color="#F4F4F4" stop-opacity="0.353791"/>
<stop offset="1" stop-color="#D9D9D9" stop-opacity="0"/>
</linearGradient>
<linearGradient id="paint1_linear_202_51" x1="203.059" y1="39.6892" x2="217.941" y2="119.311" gradientUnits="userSpaceOnUse">
<stop stop-color="#FFFEFE" stop-opacity="0.49"/>
<stop offset="0.277978" stop-color="#F4F4F4" stop-opacity="0.353791"/>
<stop offset="1" stop-color="#D9D9D9" stop-opacity="0"/>
</linearGradient>
</defs>
</svg>
