<svg width="240" height="140" viewBox="0 0 240 140" fill="none" xmlns="http://www.w3.org/2000/svg">
<mask id="mask0_204_182" style="mask-type:alpha" maskUnits="userSpaceOnUse" x="169" y="16" width="62" height="42">
<path d="M169 16H200.5L231 58H169V16Z" fill="#58578D"/>
</mask>
<g mask="url(#mask0_204_182)">
<path d="M169 16H200.5L231 58H169V16Z" fill="#58578D"/>
<path fill-rule="evenodd" clip-rule="evenodd" d="M243.393 17.2908C257.181 30.2517 261.727 52.5184 250.985 68.0047C241.968 81.0051 223.476 71.7439 207.979 68.3483C194.263 65.3427 176.336 64.9648 173.954 51.1252C171.411 36.3517 186.167 26.2578 199.608 19.7086C214.116 12.6397 231.589 6.19462 243.393 17.2908Z" fill="url(#paint0_linear_204_182)"/>
</g>
<path fill-rule="evenodd" clip-rule="evenodd" d="M169 0H51V116H63.0788C64.0977 103.128 74.8661 93 88 93C101.134 93 111.902 103.128 112.921 116H166.079C167.098 103.128 177.866 93 191 93C204.134 93 214.902 103.128 215.921 116H231H237C238.657 116 240 114.657 240 113V104C240 102.343 238.657 101 237 101H231V58H169V0Z" fill="#2D2C64"/>
<circle cx="88" cy="118" r="16.5" fill="#2D2C64" stroke="#7372A6" stroke-width="11"/>
<circle cx="191" cy="118" r="16.5" fill="#2D2C64" stroke="#7372A6" stroke-width="11"/>
<rect x="7" y="14" width="90" height="16" fill="#2D2C64" stroke="#7372A6" stroke-width="3"/>
<rect x="22" y="39" width="88" height="15" fill="#2D2C64" stroke="#7372A6" stroke-width="3"/>
<rect x="2" y="63" width="98" height="14" fill="#2D2C64" stroke="#7372A6" stroke-width="3"/>
<defs>
<linearGradient id="paint0_linear_204_182" x1="247.151" y1="21.186" x2="191.403" y2="73.2778" gradientUnits="userSpaceOnUse">
<stop stop-color="#FFFEFE" stop-opacity="0.49"/>
<stop offset="0.277978" stop-color="#F4F4F4" stop-opacity="0.353791"/>
<stop offset="1" stop-color="#D9D9D9" stop-opacity="0"/>
</linearGradient>
</defs>
</svg>
