<svg width="166" height="166" viewBox="0 0 166 166" fill="none" xmlns="http://www.w3.org/2000/svg">
<mask id="mask0_204_159" style="mask-type:alpha" maskUnits="userSpaceOnUse" x="0" y="0" width="166" height="166">
<circle cx="83" cy="83" r="83" fill="#E2E2F4"/>
</mask>
<g mask="url(#mask0_204_159)">
<circle cx="83" cy="83" r="83" fill="#E2E2F4"/>
<path d="M85 2C39.2496 2 2 39.2161 2 85C2 130.75 39.2496 168 85 168C130.75 168 168 130.75 168 85C168 39.2161 130.75 2 85 2ZM10.3669 85C10.3669 74.1899 12.6762 63.9153 16.8262 54.6448L52.4359 152.17C27.5359 140.054 10.3669 114.519 10.3669 85ZM85 159.633C77.6706 159.633 70.6089 158.562 63.9153 156.588L86.3052 91.5262L109.231 154.379C109.398 154.747 109.565 155.081 109.766 155.416C102.035 158.127 93.7016 159.633 85 159.633ZM95.2746 50.0262C99.7593 49.7919 103.809 49.3234 103.809 49.3234C107.825 48.8548 107.356 42.931 103.34 43.1653C103.34 43.1653 91.2585 44.1024 83.4605 44.1024C76.1311 44.1024 63.8149 43.1653 63.8149 43.1653C59.7988 42.931 59.3302 49.0891 63.3464 49.3234C63.3464 49.3234 67.1617 49.7919 71.1778 50.0262L82.7911 81.8875L66.4589 130.851L39.2831 50.0262C43.7677 49.7919 47.8173 49.3234 47.8173 49.3234C51.8335 48.8548 51.3649 42.931 47.3488 43.1653C47.3488 43.1653 35.2669 44.1024 27.469 44.1024C26.0633 44.1024 24.4234 44.069 22.6496 44.002C36.0032 23.754 58.9286 10.3669 85 10.3669C104.411 10.3669 122.116 17.7968 135.402 29.9456C135.068 29.9121 134.767 29.8786 134.432 29.8786C127.102 29.8786 121.915 36.271 121.915 43.1319C121.915 49.2899 125.463 54.4774 129.244 60.6355C132.089 65.5887 135.402 71.981 135.402 81.2181C135.402 87.6105 132.959 95.0069 129.713 105.348L122.283 130.215L95.2746 50.0262ZM122.517 149.492L145.309 83.5944C149.559 72.9516 150.998 64.4508 150.998 56.8536C150.998 54.1093 150.831 51.5657 150.496 49.1895C156.32 59.8323 159.633 72.0145 159.633 85C159.633 112.544 144.706 136.574 122.517 149.492Z" fill="#7E7DAB"/>
<path d="M83 0C37.2496 0 0 37.2161 0 83C0 128.75 37.2496 166 83 166C128.75 166 166 128.75 166 83C166 37.2161 128.75 0 83 0ZM8.36694 83C8.36694 72.1899 10.6762 61.9153 14.8262 52.6448L50.4359 150.17C25.5359 138.054 8.36694 112.519 8.36694 83ZM83 157.633C75.6706 157.633 68.6089 156.562 61.9153 154.588L84.3052 89.5262L107.231 152.379C107.398 152.747 107.565 153.081 107.766 153.416C100.035 156.127 91.7016 157.633 83 157.633ZM93.2746 48.0262C97.7593 47.7919 101.809 47.3234 101.809 47.3234C105.825 46.8548 105.356 40.931 101.34 41.1653C101.34 41.1653 89.2585 42.1024 81.4605 42.1024C74.1311 42.1024 61.8149 41.1653 61.8149 41.1653C57.7988 40.931 57.3302 47.0891 61.3464 47.3234C61.3464 47.3234 65.1617 47.7919 69.1778 48.0262L80.7911 79.8875L64.4589 128.851L37.2831 48.0262C41.7677 47.7919 45.8173 47.3234 45.8173 47.3234C49.8335 46.8548 49.3649 40.931 45.3488 41.1653C45.3488 41.1653 33.2669 42.1024 25.469 42.1024C24.0633 42.1024 22.4234 42.069 20.6496 42.002C34.0032 21.754 56.9286 8.36694 83 8.36694C102.411 8.36694 120.116 15.7968 133.402 27.9456C133.068 27.9121 132.767 27.8786 132.432 27.8786C125.102 27.8786 119.915 34.271 119.915 41.1319C119.915 47.2899 123.463 52.4774 127.244 58.6355C130.089 63.5887 133.402 69.981 133.402 79.2181C133.402 85.6105 130.959 93.0069 127.713 103.348L120.283 128.215L93.2746 48.0262ZM120.517 147.492L143.309 81.5944C147.559 70.9516 148.998 62.4508 148.998 54.8536C148.998 52.1093 148.831 49.5657 148.496 47.1895C154.32 57.8323 157.633 70.0145 157.633 83C157.633 110.544 142.706 134.574 120.517 147.492Z" fill="#2D2C64"/>
<path fill-rule="evenodd" clip-rule="evenodd" d="M139.213 19.5043C182.672 22.8315 223 56.2053 226.109 99.5051C228.718 135.854 182.165 145.962 149.461 162.262C120.514 176.69 87.8101 201.915 63.5406 180.531C37.6331 157.704 49.5173 118.276 64.1649 87.107C79.9747 53.4646 102.006 16.6558 139.213 19.5043Z" fill="url(#paint0_linear_204_159)"/>
</g>
<defs>
<linearGradient id="paint0_linear_204_159" x1="151.582" y1="21.0612" x2="126.849" y2="195.056" gradientUnits="userSpaceOnUse">
<stop stop-color="#FFFEFE" stop-opacity="0.49"/>
<stop offset="0.277978" stop-color="#F4F4F4" stop-opacity="0.353791"/>
<stop offset="1" stop-color="#D9D9D9" stop-opacity="0"/>
</linearGradient>
</defs>
</svg>
